<svg width="23" height="20" viewBox="0 0 23 20" fill="none" xmlns="http://www.w3.org/2000/svg">
<g clip-path="url(#clip0_29_92)">
<path d="M20.1056 8.3335C20.1056 14.1668 11.4889 19.1668 11.4889 19.1668C11.4889 19.1668 2.87222 14.1668 2.87222 8.3335C2.87222 6.34437 3.78005 4.43672 5.39599 3.0302C7.01193 1.62367 9.20362 0.833496 11.4889 0.833496C13.7742 0.833496 15.9659 1.62367 17.5818 3.0302C19.1978 4.43672 20.1056 6.34437 20.1056 8.3335Z" stroke="white" stroke-width="2" stroke-linecap="round" stroke-linejoin="round"/>
<path d="M11.4889 10.8335C13.0752 10.8335 14.3611 9.71421 14.3611 8.3335C14.3611 6.95278 13.0752 5.8335 11.4889 5.8335C9.90262 5.8335 8.61668 6.95278 8.61668 8.3335C8.61668 9.71421 9.90262 10.8335 11.4889 10.8335Z" stroke="white" stroke-width="2" stroke-linecap="round" stroke-linejoin="round"/>
</g>
<defs>
<clipPath id="clip0_29_92">
<rect width="22.9778" height="20" fill="white"/>
</clipPath>
</defs>
</svg>
