<svg width="23" height="20" viewBox="0 0 23 20" fill="none" xmlns="http://www.w3.org/2000/svg">
<g clip-path="url(#clip0_29_80)">
<path d="M21.063 14.0999V16.5999C21.0641 16.832 21.0095 17.0617 20.9027 17.2744C20.7958 17.487 20.6392 17.6779 20.4427 17.8348C20.2462 17.9917 20.0142 18.1112 19.7616 18.1855C19.5091 18.2599 19.2414 18.2875 18.9759 18.2666C16.0297 17.988 13.1998 17.1117 10.7134 15.7083C8.40015 14.4288 6.4389 12.7217 4.96896 10.7083C3.35092 8.53426 2.34398 6.05908 2.02971 3.48325C2.00579 3.25281 2.03725 3.02055 2.1221 2.80127C2.20695 2.58199 2.34333 2.38049 2.52255 2.2096C2.70178 2.03871 2.91992 1.90218 3.16309 1.80869C3.40625 1.7152 3.66912 1.6668 3.93496 1.66658H6.80719C7.27182 1.6626 7.72227 1.80582 8.07457 2.06953C8.42686 2.33324 8.65697 2.69946 8.722 3.09992C8.84323 3.89997 9.06806 4.68552 9.39219 5.44158C9.521 5.73985 9.54888 6.06401 9.47252 6.37565C9.39616 6.68729 9.21877 6.97334 8.96136 7.19992L7.74545 8.25825C9.10837 10.3445 11.093 12.072 13.4899 13.2583L14.7058 12.1999C14.9661 11.9759 15.2948 11.8215 15.6528 11.755C16.0108 11.6885 16.3833 11.7128 16.7259 11.8249C17.5946 12.107 18.4971 12.3027 19.4163 12.4083C19.8813 12.4654 20.3061 12.6693 20.6097 12.9812C20.9133 13.2931 21.0747 13.6912 21.063 14.0999Z" stroke="white" stroke-width="2" stroke-linecap="round" stroke-linejoin="round"/>
</g>
<defs>
<clipPath id="clip0_29_80">
<rect width="22.9778" height="20" fill="white"/>
</clipPath>
</defs>
</svg>
